<?xml version="1.0" encoding="UTF-8" standalone="no"?>
<!-- Created with Inkscape (http://www.inkscape.org/) -->

<svg
   version="1.1"
   id="svg1"
   width="717.06335"
   height="349.59009"
   viewBox="0 0 717.06334 349.59009"
   sodipodi:docname="ekster.svg"
   xmlns:inkscape="http://www.inkscape.org/namespaces/inkscape"
   xmlns:sodipodi="http://sodipodi.sourceforge.net/DTD/sodipodi-0.dtd"
   xmlns:xlink="http://www.w3.org/1999/xlink"
   xmlns="http://www.w3.org/2000/svg"
   xmlns:svg="http://www.w3.org/2000/svg">
  <defs
     id="defs1">
    <clipPath
       clipPathUnits="userSpaceOnUse"
       id="clipPath1">
      <path
         d="M 0,1.0000002 H 0.99999812 V 5.0856258e-7 H 0 Z"
         id="path1" />
    </clipPath>
    <color-profile
       inkscape:label="Coated FOGRA39 (ISO 12647-2:2004)"
       name="Coated FOGRA39 (ISO 12647-2:2004)"
       xlink:href=""
       id="color-profile1" />
  </defs>
  <style>
    .sa{animation:sa 7s linear infinite}
    .sb{animation:sb 7s linear infinite}
    .sc{animation:sc 7s linear infinite}
    .sd{animation:sd 7s linear infinite}
    .wp{animation:wp 7s linear infinite}
    @keyframes sa{0%,24.9%{opacity:1}25%,100%{opacity:0}}
    @keyframes sb{0%,24.9%{opacity:0}25%,49.9%{opacity:1}50%,100%{opacity:0}}
    @keyframes sc{0%,49.9%{opacity:0}50%,74.9%{opacity:1}75%,100%{opacity:0}}
    @keyframes sd{0%,74.9%{opacity:0}75%,100%{opacity:1}}
    @keyframes wp{0%,61.4%{opacity:1}61.6%,65.5%{opacity:0}65.7%,100%{opacity:1}}
    @media(prefers-reduced-motion:reduce){.sa,.sb,.sc,.sd,.wp{animation:none}.sb,.sc,.sd{opacity:0}}
  </style>
  <sodipodi:namedview
     id="namedview1"
     pagecolor="#ffffff"
     bordercolor="#000000"
     borderopacity="0.25"
     inkscape:showpageshadow="2"
     inkscape:pageopacity="0.0"
     inkscape:pagecheckerboard="0"
     inkscape:deskcolor="#d1d1d1">
    <inkscape:page
       x="-153.22569"
       y="-223.29771"
       inkscape:label="1"
       id="page1"
       width="1122.52"
       height="793.70801"
       margin="220.82001 237.18666 223.29733 153.22533"
       bleed="0" />
  </sodipodi:namedview>
  <g
     id="layer-MC0"
     inkscape:groupmode="layer"
     inkscape:label="Laag 1"
     style="display:none"
     transform="translate(-153.2257,-223.29771)">
    
    
  </g>
  <g
     id="layer-MC1"
     inkscape:groupmode="layer"
     inkscape:label="Laag 2"
     transform="translate(-153.2257,-223.29771)">
    <path
       id="path2"
       d="M 0,0 C -2.49,0 -4.5,2.46 -4.5,5.5 -4.5,8.54 -2.49,11 0,11 2.49,11 4.5,8.54 4.5,5.5 4.5,2.46 2.49,0 0,0 m 9.5,2 10.5,8.5 -19,6 -29,-10 -7,-9 c 0,0 -12.55,-17.05 -22.74,-31.88 0,0 37.65,26.1 55.17,18.21 3.61,-1.62 6.36,-4.69 7.75,-9.72 1.74,-6.25 1.38,-15.55 -2.06,-28.9 8.58,15.17 15.11,33.07 14.38,51.79 z"
       style="fill:#000000;fill-opacity:1;fill-rule:nonzero;stroke:none"
       transform="matrix(1.3333333,0,0,-1.3333333,386.66667,245.99973)" />
    <path
       id="path3"
       d="M 0,0 C -2.49,0 -4.5,2.46 -4.5,5.5 -4.5,8.54 -2.49,11 0,11 2.49,11 4.5,8.54 4.5,5.5 4.5,2.46 2.49,0 0,0 Z m 9.5,2 10.5,8.5 -19,6 -29,-10 -7,-9 c 0,0 -12.55,-17.05 -22.74,-31.88 0,0 37.65,26.1 55.17,18.21 3.61,-1.62 6.36,-4.69 7.75,-9.72 1.74,-6.25 1.38,-15.55 -2.06,-28.9 8.58,15.17 15.11,33.07 14.38,51.79 z"
       style="fill:none;stroke:#000000;stroke-width:1;stroke-linecap:butt;stroke-linejoin:miter;stroke-miterlimit:10;stroke-dasharray:none;stroke-opacity:1"
       transform="matrix(1.3333333,0,0,-1.3333333,386.66667,245.99973)" />
    <path
       id="path4"
       d="m 0,0 -67.93,-38.83 c 0.78,2.72 6.29,11.22 12.76,20.62 0,0 37.65,26.1 55.17,18.21"
       style="fill:#ffffff;fill-opacity:1;fill-rule:nonzero;stroke:none"
       transform="matrix(1.3333333,0,0,-1.3333333,383.24,267.5596)" />
    <path
       id="path5"
       d="m 0,0 -67.93,-38.83 c 0.78,2.72 6.29,11.22 12.76,20.62 0,0 37.65,26.1 55.17,18.21 z"
       style="fill:none;stroke:#000000;stroke-width:1;stroke-linecap:butt;stroke-linejoin:miter;stroke-miterlimit:10;stroke-dasharray:none;stroke-opacity:1"
       transform="matrix(1.3333333,0,0,-1.3333333,383.24,267.5596)" />
    <path
       id="path6"
       d="m 0,0 c -14.78,-26.18 -35.62,-44.21 -35.62,-44.21 -7,-6 -16.17,-8.87 -16.17,-8.87 l -5.85,-1.67 c -1.81,-0.63 -4,-1.4 -6.44,-2.26 -0.61,-0.22 -1.24,-0.44 -1.88,-0.67 -0.71,-0.25 -1.44,-0.51 -2.19,-0.78 -7.33,8.52 2.34,21.96 2.85,22.66 0.01,0.02 0.02,0.03 0.02,0.03 C -50.71,-24.15 -4.1,13.84 2.06,28.9 3.8,22.65 3.44,13.35 0,0"
       style="fill:#ffffff;fill-opacity:1;fill-rule:nonzero;stroke:#000000;stroke-width:1;stroke-linecap:butt;stroke-linejoin:miter;stroke-miterlimit:10;stroke-dasharray:none;stroke-opacity:1"
       transform="matrix(1.3333333,0,0,-1.3333333,390.82667,319.05293)" />
    <path
       id="path7"
       d="m 0,0 c -0.57,-2.03 -1.02,-3.28 -1.02,-3.28 -0.53,0.18 -1.07,0.42 -1.61,0.71 -1.45,0.77 -2.92,1.92 -4.31,3.18 C -7.48,1.1 -8,1.6 -8.5,2.11 c -3.24,3.27 -5.69,6.74 -5.69,6.74 0,0 9.17,2.87 16.17,8.87 C 2.64,11.09 1.11,4.01 0,0"
       style="fill:#000000;fill-opacity:1;fill-rule:nonzero;stroke:#000000;stroke-width:1;stroke-linecap:butt;stroke-linejoin:miter;stroke-miterlimit:10;stroke-dasharray:none;stroke-opacity:1"
       transform="matrix(1.3333333,0,0,-1.3333333,340.69333,401.62627)" />
    <path
       id="path8"
       d="M 0,0 -12,-8 0,-3 -10.98,-10.99 -11,-11 c -15,-12 -52,-117 -52,-117 -1,8 -22,31 -22,31 4,10 27,40 35,52 8,12 35,53 35,53 L 2.5,13.99 -13.24,1.75 -3.99,5.46 -15,-1.46 -2,4 -14,-4 -1.85,1.75 -11,-5 Z"
       style="fill:#00679a;fill-opacity:1;fill-rule:nonzero;stroke:#000000;stroke-width:1;stroke-linecap:butt;stroke-linejoin:miter;stroke-miterlimit:10;stroke-dasharray:none;stroke-opacity:1"
       transform="matrix(1.3333333,0,0,-1.3333333,267.33333,399.33307)" />
    <path
       id="path9"
       d="m 0,0 c -6.16,-15.06 -52.77,-53.05 -67.34,-64.67 0,0 -0.01,-0.01 -0.02,-0.03 -2.72,-2.16 -4.32,-3.41 -4.32,-3.41 l -20.48,-7 -0.02,-0.01 -17.5,-5.99 -53,-12 c 10,16 87,64 87,64 L -7.75,9.72 C -4.14,8.1 -1.39,5.03 0,0"
       style="fill:#00679a;fill-opacity:1;fill-rule:nonzero;stroke:#000000;stroke-width:1;stroke-linecap:butt;stroke-linejoin:miter;stroke-miterlimit:10;stroke-dasharray:none;stroke-opacity:1"
       transform="matrix(1.3333333,0,0,-1.3333333,393.57333,280.51973)" />
    <path
       id="path10"
       d="M 0,0 C 0,3.04 2.01,5.5 4.5,5.5 6.99,5.5 9,3.04 9,0 9,-3.04 6.99,-5.5 4.5,-5.5 2.01,-5.5 0,-3.04 0,0 Z"
       style="fill:none;stroke:#dd0b14;stroke-width:1;stroke-linecap:butt;stroke-linejoin:miter;stroke-miterlimit:10;stroke-dasharray:none;stroke-opacity:1"
      transform="matrix(1.3333333,0,0,-1.3333333,380.66667,238.6664)" />
    <path
       id="path11"
       d="m 0,0 -28.5,-11.5 -8,5 L -26,2 Z"
       style="fill:#454545;fill-opacity:1;fill-rule:nonzero;stroke:#111111;stroke-width:1;stroke-linecap:butt;stroke-linejoin:miter;stroke-miterlimit:10;stroke-dasharray:none;stroke-opacity:1"
       transform="matrix(1.3333333,0,0,-1.3333333,448,234.6664)" />
    <path
       id="path12"
       d="m 0,0 c -14.75,-5.25 -34.66,-12.46 -35.45,-12.74 l 10.98,7.99 -12,-5 12,8 -11,-5 9.15,6.75 -12.15,-5.75 12,8 -13,-5.46 11.01,6.92 -9.25,-3.71 15.74,12.24 0.02,0.01 20.48,7 c 0,0 1.6,1.25 4.32,3.41 C 2.34,21.96 -7.33,8.52 0,0"
       style="fill:#000000;fill-opacity:1;fill-rule:nonzero;stroke:#000000;stroke-width:1;stroke-linecap:butt;stroke-linejoin:miter;stroke-miterlimit:10;stroke-dasharray:none;stroke-opacity:1"
       transform="matrix(1.3333333,0,0,-1.3333333,299.96,396.99973)" />
    <path
       id="path13"
       d="m 0,0 c -4,2 -10,1 -10,1 l -2,-1 c 0,0 7,-2 9,-5 2,-3 -2,-2 -5,1 -3,3 -13,6 -13,6 0,0 -8,-4 -9,-4 -0.41,0 0.84,0.94 2.46,2.06 2.36,1.62 5.5,3.6 5.5,3.6 l -0.37,6.53 -0.2,3.52 c 0.54,-0.29 1.08,-0.53 1.61,-0.71 0,0 0.45,1.25 1.02,3.28 C -19.97,14.56 -20,6 -20,5 c 0,-1 1,0 1,0 3,2 7,3 10,4 3,1 7,2 7,2 C 1,10 -5,8 -9,7 -13,6 -19,3 -19,3 -17,3 -13,2 -13,2 -5,4 1,2 1,2 4,-1 0,0 0,0"
       style="fill:#454545;fill-opacity:1;fill-rule:nonzero;stroke:#000000;stroke-width:1;stroke-linecap:butt;stroke-linejoin:miter;stroke-miterlimit:10;stroke-dasharray:none;stroke-opacity:1"
       transform="matrix(1.3333333,0,0,-1.3333333,367.33333,423.33307)" />
    <path
       id="path14"
       d="m 0,0 c 0,-0.36 -0.4,-0.52 -1.58,-0.13 -3,1 -14,0 -15,0 -1,0 7,-5 7,-6 0,-1 6,-1 5.91,-2 -0.03,-0.33 -0.58,-0.44 -1.35,-0.44 -1.52,0 -3.89,0.44 -4.56,0.44 -1,0 -5,2 -6.2,3.34 -1.19,1.35 -3.8,3.66 -4.8,3.66 -1,0 -10,-2 -11,-3 -1,-1 -3,-1 -1,1 2,2 11,4 11,5 0,1 -3.34,8.53 -3.34,8.53 0.64,0.23 1.27,0.45 1.88,0.67 0,0 2.46,-9.2 3.46,-8.2 1,1 10.03,6.78 14.52,5.39 0.5,-0.51 1.02,-1.01 1.56,-1.5 -9.92,-0.11 -14.59,-5.85 -14.59,-5.85 3.5,1.04 15.51,0.96 16.51,0.77 C -0.97,1.56 0,0.55 0,0"
       style="fill:#454545;fill-opacity:1;fill-rule:nonzero;stroke:#000000;stroke-width:1;stroke-linecap:butt;stroke-linejoin:miter;stroke-miterlimit:10;stroke-dasharray:none;stroke-opacity:1"
       transform="matrix(1.3333333,0,0,-1.3333333,336.10667,409.82627)" />
    <path
       id="path15"
       d="M 0,0 C 0,0 -87.372,-57.738 -102.186,-61.869"
       style="fill:none;stroke:#1f80a6;stroke-width:1;stroke-linecap:butt;stroke-linejoin:miter;stroke-miterlimit:10;stroke-dasharray:none;stroke-opacity:1"
       transform="matrix(1.3333333,0,0,-1.3333333,344.66667,307.33307)" />
    <path
       id="path16"
       d="M 0,0 C 0,0 -69.952,-59.281 -77.476,-64.141"
       style="fill:none;stroke:#1f80a6;stroke-width:1;stroke-linecap:butt;stroke-linejoin:miter;stroke-miterlimit:10;stroke-dasharray:none;stroke-opacity:1"
       transform="matrix(1.3333333,0,0,-1.3333333,372.66667,288.6664)" />
    <path
       id="path17"
       d="M 0,0 C 0,0 -37.58,-41.573 -48.422,-48.842"
       style="fill:none;stroke:#1f80a6;stroke-width:1;stroke-linecap:butt;stroke-linejoin:miter;stroke-miterlimit:10;stroke-dasharray:none;stroke-opacity:1"
       transform="matrix(1.3333333,0,0,-1.3333333,383.68453,280.51853)" />
    <path
       id="path18"
       d="M 0,0 C 0,0 -106.977,-60 -115.489,-69"
       style="fill:none;stroke:#1f80a6;stroke-width:1;stroke-linecap:butt;stroke-linejoin:miter;stroke-miterlimit:10;stroke-dasharray:none;stroke-opacity:1"
       transform="matrix(1.3333333,0,0,-1.3333333,358,296.6664)" />
    <path
       id="path19"
       d="M 0,0 C 0,0 -48.652,-31.234 -56.196,-36.898"
       style="fill:none;stroke:#1f80a6;stroke-width:1;stroke-linecap:butt;stroke-linejoin:miter;stroke-miterlimit:10;stroke-dasharray:none;stroke-opacity:1"
       transform="matrix(1.3333333,0,0,-1.3333333,378.98733,273.25187)" />
    <path
       id="path20"
       d="M 0,0 C 0,0 -55.53,-35.232 -62.53,-41.232"
       style="fill:none;stroke:#1f80a6;stroke-width:1;stroke-linecap:butt;stroke-linejoin:miter;stroke-miterlimit:10;stroke-dasharray:none;stroke-opacity:1"
       transform="matrix(1.3333333,0,0,-1.3333333,316.04,308.35693)" />
    <path
       id="path21"
       d="M 0,0 C 0,-3.04 -2.01,-5.5 -4.5,-5.5 -6.99,-5.5 -9,-3.04 -9,0 -9,3.04 -6.99,5.5 -4.5,5.5 -2.01,5.5 0,3.04 0,0"
       style="fill:#ffffff;fill-opacity:1;fill-rule:nonzero;stroke:#000000;stroke-width:1;stroke-linecap:butt;stroke-linejoin:miter;stroke-miterlimit:10;stroke-dasharray:none;stroke-opacity:1"
       transform="matrix(1.3333333,0,0,-1.3333333,392.66667,238.6664)">
      <animate
         attributeName="opacity"
         dur="9.6s"
         repeatCount="indefinite"
         values="1;1;0;0;1"
         keyTimes="0;0.9;0.92;0.97;1" />
    </path>
    <path
       id="path21_wink_black"
       d="M 0,0 C 0,-3.04 -2.01,-5.5 -4.5,-5.5 -6.99,-5.5 -9,-3.04 -9,0 -9,3.04 -6.99,5.5 -4.5,5.5 -2.01,5.5 0,3.04 0,0"
       style="fill:#000000;fill-opacity:1;fill-rule:nonzero;stroke:#000000;stroke-width:1;stroke-linecap:butt;stroke-linejoin:miter;stroke-miterlimit:10;stroke-dasharray:none;stroke-opacity:1"
       transform="matrix(1.3333333,0,0,-1.3333333,392.66667,238.6664)">
      <animate
         attributeName="opacity"
         dur="9.6s"
         repeatCount="indefinite"
         values="0;0;1;1;0"
         keyTimes="0;0.9;0.92;0.97;1" />
    </path>
    <path
       id="path22"
       d="m 0,0 c 0,-0.552 -0.448,-1 -1,-1 -0.552,0 -1,0.448 -1,1 0,0.552 0.448,1 1,1 0.552,0 1,-0.448 1,-1"
       style="fill:#000000;fill-opacity:1;fill-rule:nonzero;stroke:none"
       transform="matrix(1.3333333,0,0,-1.3333333,387.33333,241.99973)">
      <animate
         attributeName="opacity"
         dur="9.6s"
         repeatCount="indefinite"
         values="1;1;0;0;1"
         keyTimes="0;0.9;0.92;0.97;1" />
    </path>
    <path
       id="path23"
       d="m 0,0 c 0,-0.552 -0.448,-1 -1,-1 -0.552,0 -1,0.448 -1,1 0,0.552 0.448,1 1,1 0.552,0 1,-0.448 1,-1 z"
       style="fill:none;stroke:#000000;stroke-width:1;stroke-linecap:butt;stroke-linejoin:miter;stroke-miterlimit:10;stroke-dasharray:none;stroke-opacity:1"
       transform="matrix(1.3333333,0,0,-1.3333333,387.33333,241.99973)">
      <animate
         attributeName="opacity"
         dur="9.6s"
         repeatCount="indefinite"
         values="1;1;0;0;1"
         keyTimes="0;0.9;0.92;0.97;1" />
    </path>
    <path
       id="path24"
       d="M 0,0 -50.511,-72.01"
       style="fill:none;stroke:#1f80a6;stroke-width:1;stroke-linecap:butt;stroke-linejoin:miter;stroke-miterlimit:10;stroke-dasharray:none;stroke-opacity:1"
       transform="matrix(1.3333333,0,0,-1.3333333,237.34853,413.98627)" />
    <path
       id="path25"
       d="M 0,0 -29.549,-49.915"
       style="fill:none;stroke:#1f80a6;stroke-width:1;stroke-linecap:butt;stroke-linejoin:miter;stroke-miterlimit:10;stroke-dasharray:none;stroke-opacity:1"
       transform="matrix(1.3333333,0,0,-1.3333333,243.0732,413.98627)" />
    <path
       id="path26"
       d="M 0,0 -37.511,-76.189"
       style="fill:none;stroke:#1f80a6;stroke-width:1;stroke-linecap:butt;stroke-linejoin:miter;stroke-miterlimit:10;stroke-dasharray:none;stroke-opacity:1"
       transform="matrix(1.3333333,0,0,-1.3333333,237.34853,432.4148)" />
    <path
       id="path27"
       d="M 0,0 -30,-49"
       style="fill:none;stroke:#1f80a6;stroke-width:1;stroke-linecap:butt;stroke-linejoin:miter;stroke-miterlimit:10;stroke-dasharray:none;stroke-opacity:1"
       transform="matrix(1.3333333,0,0,-1.3333333,206,465.9996)" />
    <path
       id="path28"
       d="M 0,0 -19,-40"
       style="fill:none;stroke:#1f80a6;stroke-width:1;stroke-linecap:butt;stroke-linejoin:miter;stroke-miterlimit:10;stroke-dasharray:none;stroke-opacity:1"
       transform="matrix(1.3333333,0,0,-1.3333333,200.66667,488.66627)" />
    <path
       id="path29"
       d="M 0,0 -13,-24.11"
       style="fill:none;stroke:#1f80a6;stroke-width:1;stroke-linecap:butt;stroke-linejoin:miter;stroke-miterlimit:10;stroke-dasharray:none;stroke-opacity:1"
       transform="matrix(1.3333333,0,0,-1.3333333,187.33333,504.76027)" />
    <path
       id="path30"
       d="m 0,0 c -2.95,-7.63 -9.07,-10.55 -15.18,-11.29 -2.41,-0.29 -4.81,-0.24 -7.02,-0.01 -3.55,0.39 -6.57,1.25 -8.27,1.94 -2.25,0.92 -5,3.66 -7.2,7.38 -3.09,5.25 -5.07,12.49 -2.97,19.36 2.84,9.28 13.91,12.73 18.42,13.77 h 0.01 c 0.43,0.1 0.8,0.18 1.09,0.23 0.53,0.11 0.83,0.15 0.83,0.15 0.24,0.03 0.57,0.05 0.98,0.05 0.28,0 0.6,-0.01 0.95,-0.02 0.25,-0.02 0.52,-0.03 0.81,-0.05 3.96,-0.29 10.51,-1.44 13,-3.6 C -1.3,25.09 5.97,15.48 0,0"
       style="fill:#dddddd;fill-opacity:1;fill-rule:nonzero;stroke:#a9a9aa;stroke-width:1;stroke-linecap:butt;stroke-linejoin:miter;stroke-miterlimit:10;stroke-dasharray:none;stroke-opacity:1"
       transform="matrix(1.3333333,0,0,-1.3333333,459.32,319.75973)" />
    <path
       id="path31"
       d="M 0,0 C 0,0 8.134,-7.079 20.051,1.41"
       style="fill:none;stroke:#a9a9aa;stroke-width:1;stroke-linecap:butt;stroke-linejoin:miter;stroke-miterlimit:10;stroke-dasharray:none;stroke-opacity:1"
       transform="matrix(1.3333333,0,0,-1.3333333,420.06827,281.48013)" />
    <path
       id="path32"
       d="M 0,0 C 0,0 20.745,-9.135 36.129,1.631"
       style="fill:none;stroke:#a9a9aa;stroke-width:1;stroke-linecap:butt;stroke-linejoin:miter;stroke-miterlimit:10;stroke-dasharray:none;stroke-opacity:1"
       transform="matrix(1.3333333,0,0,-1.3333333,409.10213,289.402)" />
    <path
       id="path33"
       d="M 0,0 C -0.086,-0.111 21.325,-13.965 42.856,1.821"
       style="fill:none;stroke:#a9a9aa;stroke-width:1;stroke-linecap:butt;stroke-linejoin:miter;stroke-miterlimit:10;stroke-dasharray:none;stroke-opacity:1"
       transform="matrix(1.3333333,0,0,-1.3333333,404.40493,299.63053)" />
    <path
       id="path34"
       d="M 0,0 C 0,0 18.578,-12.476 42.695,2.611"
       style="fill:none;stroke:#a9a9aa;stroke-width:1;stroke-linecap:butt;stroke-linejoin:miter;stroke-miterlimit:10;stroke-dasharray:none;stroke-opacity:1"
       transform="matrix(1.3333333,0,0,-1.3333333,405.10787,312.8748)" />
    <path
       id="path35"
       d="M 0,0 C 0,0 18.235,-7.647 34.284,2.54"
       style="fill:none;stroke:#a9a9aa;stroke-width:1;stroke-linecap:butt;stroke-linejoin:miter;stroke-miterlimit:10;stroke-dasharray:none;stroke-opacity:1"
       transform="matrix(1.3333333,0,0,-1.3333333,411.98693,326.59013)" />
    <path
       id="path36"
       d="M 0,0 C 0,0 -18.254,-12.683 -15.465,-33.128"
       style="fill:none;stroke:#a9a9aa;stroke-width:1;stroke-linecap:butt;stroke-linejoin:miter;stroke-miterlimit:10;stroke-dasharray:none;stroke-opacity:1"
       transform="matrix(1.3333333,0,0,-1.3333333,429.72187,278.21933)" />
    <path
       id="path37"
       d="M 0,0 C 0.184,0.189 -15.606,-17.995 -10.172,-40.893"
       style="fill:none;stroke:#a9a9aa;stroke-width:1;stroke-linecap:butt;stroke-linejoin:miter;stroke-miterlimit:10;stroke-dasharray:none;stroke-opacity:1"
       transform="matrix(1.3333333,0,0,-1.3333333,432.26187,277.71907)" />
    <path
       id="path38"
       d="M 0,0 C 0,0 -11.866,-20.875 -2.887,-42.826"
       style="fill:none;stroke:#a9a9aa;stroke-width:1;stroke-linecap:butt;stroke-linejoin:miter;stroke-miterlimit:10;stroke-dasharray:none;stroke-opacity:1"
       transform="matrix(1.3333333,0,0,-1.3333333,433.5712,277.71707)" />
    <path
       id="path39"
       d="M 0,0 C 0,0 -0.45,34.467 -3.186,43.021"
       style="fill:none;stroke:#a9a9aa;stroke-width:1;stroke-linecap:butt;stroke-linejoin:miter;stroke-miterlimit:10;stroke-dasharray:none;stroke-opacity:1"
       transform="matrix(1.3333333,0,0,-1.3333333,439.09093,335.07893)" />
    <path
       id="path40"
       d="M 0,0 C 0,0 18.367,-15.075 10.167,-36.199"
       style="fill:none;stroke:#a9a9aa;stroke-width:1;stroke-linecap:butt;stroke-linejoin:miter;stroke-miterlimit:10;stroke-dasharray:none;stroke-opacity:1"
       transform="matrix(1.3333333,0,0,-1.3333333,441.6964,278.468)" />
    <path
       id="path41"
       d="M 0,0 C 0,0 11.18,-13.366 6.59,-40.683"
       style="fill:none;stroke:#a9a9aa;stroke-width:1;stroke-linecap:butt;stroke-linejoin:miter;stroke-miterlimit:10;stroke-dasharray:none;stroke-opacity:1"
       transform="matrix(1.3333333,0,0,-1.3333333,439.33333,277.99973)" />
    <path
       id="path42"
       d="m 0,0 c -0.09,-0.47 -0.02,-1.49 0,-1.68 v -0.03 c -0.29,0.02 -0.56,0.03 -0.81,0.05 -0.35,0.01 -0.67,0.02 -0.95,0.02 -0.41,0 -0.74,-0.02 -0.98,-0.05 0,0 -0.3,-0.04 -0.83,-0.15 0,0 -0.52,1.87 0,1.84 0.52,-0.02 1.51,0.17 1.51,0.17 0,0 -0.5,9.16 -0.5,12.11 0,2.95 -0.36,6.41 -0.18,7.64 0.18,1.22 0.18,5.65 0.18,6.63 0,0.99 0.01,1.75 0.5,1.86 0.48,0.11 1.04,-0.02 1.25,-0.69 0.22,-0.68 -0.21,-3.42 0,-5 0.22,-1.58 -0.21,-2.86 0,-3.7 0.22,-0.83 -0.21,-1.72 0,-3.74 0.22,-2.02 -0.77,-3.49 -0.27,-5.46 0.49,-1.97 -0.5,-4.43 0,-5.91 0.49,-1.47 0.06,-3.56 0.27,-3.5 C -0.59,0.47 0.11,0.52 0,0"
       style="fill:#6db52c;fill-opacity:1;fill-rule:nonzero;stroke:#6db52c;stroke-width:1;stroke-linecap:butt;stroke-linejoin:miter;stroke-miterlimit:10;stroke-dasharray:none;stroke-opacity:1"
       transform="matrix(1.3333333,0,0,-1.3333333,435.92,275.46627)" />
    <path
       id="path43"
       class="sa"
       d="M 0,0 -0.985,4.093 -3.26,5.53 -1.107,7.146 -0.454,11.304 0.531,7.212 2.806,5.774 0.653,4.158 Z"
       style="fill:#ffffff;fill-opacity:1;fill-rule:nonzero;stroke:none"
       transform="matrix(1.3333333,0,0,-1.3333333,413.2696,314.32533)" />
    <path
       id="path44"
       class="sa"
       d="M 0,0 -0.985,4.093 -3.26,5.53 -1.107,7.146 -0.454,11.304 0.531,7.212 2.806,5.774 0.653,4.158 Z"
       style="fill:#ffffff;fill-opacity:1;fill-rule:nonzero;stroke:none"
       transform="matrix(1.3333333,0,0,-1.3333333,449.2696,298.32533)" />
    <path class="sb"
       d="M 0,0 -0.985,4.093 -3.26,5.53 -1.107,7.146 -0.454,11.304 0.531,7.212 2.806,5.774 0.653,4.158 Z"
       style="fill:#ffffff;fill-opacity:1;fill-rule:nonzero;stroke:none"
       transform="matrix(1.3333333,0,0,-1.3333333,422,292)" />
    <path class="sb"
       d="M 0,0 -0.985,4.093 -3.26,5.53 -1.107,7.146 -0.454,11.304 0.531,7.212 2.806,5.774 0.653,4.158 Z"
       style="fill:#ffffff;fill-opacity:1;fill-rule:nonzero;stroke:none"
       transform="matrix(1.3333333,0,0,-1.3333333,450,318)" />
    <path class="sc"
       d="M 0,0 -0.985,4.093 -3.26,5.53 -1.107,7.146 -0.454,11.304 0.531,7.212 2.806,5.774 0.653,4.158 Z"
       style="fill:#ffffff;fill-opacity:1;fill-rule:nonzero;stroke:none"
       transform="matrix(1.3333333,0,0,-1.3333333,435,282)" />
    <path class="sc"
       d="M 0,0 -0.985,4.093 -3.26,5.53 -1.107,7.146 -0.454,11.304 0.531,7.212 2.806,5.774 0.653,4.158 Z"
       style="fill:#ffffff;fill-opacity:1;fill-rule:nonzero;stroke:none"
       transform="matrix(1.3333333,0,0,-1.3333333,456,308)" />
    <path class="sd"
       d="M 0,0 -0.985,4.093 -3.26,5.53 -1.107,7.146 -0.454,11.304 0.531,7.212 2.806,5.774 0.653,4.158 Z"
       style="fill:#ffffff;fill-opacity:1;fill-rule:nonzero;stroke:none"
       transform="matrix(1.3333333,0,0,-1.3333333,425,322)" />
    <path class="sd"
       d="M 0,0 -0.985,4.093 -3.26,5.53 -1.107,7.146 -0.454,11.304 0.531,7.212 2.806,5.774 0.653,4.158 Z"
       style="fill:#ffffff;fill-opacity:1;fill-rule:nonzero;stroke:none"
       transform="matrix(1.3333333,0,0,-1.3333333,446,288)" />
    <path
       id="path45"
       d="M 0,0 C 0,0 -23.5,-3.5 -36.5,-6.5"
       style="fill:none;stroke:#000000;stroke-width:1;stroke-linecap:butt;stroke-linejoin:miter;stroke-miterlimit:10;stroke-dasharray:none;stroke-opacity:1"
       transform="matrix(1.3333333,0,0,-1.3333333,448,234.6664)" />
    <path
       id="path46"
       d="m 32.438478,-14.999764 c -0.336914,3.251953 -1.078125,5.9003906 -2.226562,7.9453124 -1.142578,2.0390625 -2.484375,3.6035157 -4.03125,4.6875 -1.541016,1.078125 -3.205078,1.7666016 -4.992188,2.06250004 -1.790039,0.29003906 -3.498047,0.32519531 -5.121094,0.1171875 -2.625,-0.33398438 -4.857421,-1.37695314 -6.6914059,-3.12890624 -1.836914,-1.7490235 -3.328125,-3.9873047 -4.4765625,-6.7148437 -1.1425781,-2.724609 -1.9746093,-5.818359 -2.4960937,-9.28125 -0.515625,-3.459961 -0.796875,-7.083984 -0.84375,-10.875 -0.041016,-3.788086 0.2285156,-7.514649 0.8085937,-11.179688 0.5859375,-3.670898 1.5527344,-6.996093 2.90625,-9.972656 1.359375,-2.976562 3.1083985,-5.463867 5.2500004,-7.464844 2.147461,-1.998046 4.763672,-3.228515 7.851562,-3.691406 2.039063,-0.287109 3.931641,-0.08789 5.683594,0.597656 1.749023,0.688477 3.28125,1.669922 4.59375,2.941407 1.3125,1.265625 2.349609,2.753906 3.117187,4.464843 0.773438,1.705079 1.183594,3.430664 1.230469,5.179688 l -7.746094,2.8125 c 0.164063,-1.538086 0.07617,-2.827149 -0.257812,-3.867188 -0.328125,-1.045898 -0.817383,-1.86914 -1.464844,-2.472656 -0.65039,-0.600586 -1.40039,-1.007812 -2.25,-1.21875 -0.852539,-0.210937 -1.675781,-0.272461 -2.472656,-0.1875 -1.579102,0.210938 -3.017578,1.025391 -4.3125,2.4375 -1.289063,1.415039 -2.384766,3.246094 -3.28125,5.496094 -0.890625,2.25 -1.5791017,4.825195 -2.0625001,7.722656 -0.4775391,2.900391 -0.6738281,5.929688 -0.5859375,9.09375 0.038086,2.789063 0.2753906,5.540039 0.7148437,8.25 0.4365235,2.704102 1.0312499,5.118164 1.7812499,7.242188 0.75,2.126953 1.664063,3.84375 2.742188,5.1562497 1.083984,1.3125 2.296875,1.96875 3.632812,1.96875 0.539063,0 1.183594,-0.049805 1.933594,-0.1523438 0.75,-0.099609 1.5,-0.4628906 2.25,-1.0898437 0.75,-0.6240235 1.417969,-1.59375 2.003906,-2.9062502 0.585938,-1.3125 0.960938,-3.155273 1.125,-5.53125 z m 13.620117,10.9335937 c -2.548828,-0.076172 -4.541015,-1.0019531 -5.976562,-2.7773438 -1.438477,-1.7724609 -2.501953,-4.0957029 -3.1875,-6.9726559 -0.688477,-2.874024 -1.095703,-6.143555 -1.21875,-9.808594 -0.125977,-3.662109 -0.125977,-7.432617 0,-11.308594 l 7.757812,-0.75 c -0.46289,4.625977 -0.691406,8.458008 -0.691406,11.496094 0,3.041016 0.164063,5.446289 0.492188,7.21875 0.333984,1.775391 0.834961,3.023437 1.5,3.75 0.670898,0.726562 1.464843,1.113281 2.378906,1.160156 0.75,0.04102 1.435547,-0.333984 2.0625,-1.125 0.624023,-0.796875 1.174805,-1.851562 1.652344,-3.164062 0.483398,-1.3125 0.890625,-2.800782 1.21875,-4.464844 0.333984,-1.664063 0.585937,-3.351563 0.75,-5.0625 0.169921,-1.710938 0.257812,-3.366211 0.257812,-4.96875 0,-1.599609 -0.06445,-3.005859 -0.1875,-4.21875 l 7.816406,0.128906 c -0.125976,2.750977 -0.263672,5.4375 -0.410156,8.0625 -0.149414,2.625 -0.398437,5.094727 -0.75,7.40625 -0.351562,2.314453 -0.84082,4.426758 -1.464844,6.339844 -0.626953,1.916016 -1.461914,3.5507812 -2.507812,4.9101562 -1.040039,1.3535156 -2.332031,2.4023437 -3.878906,3.1523437 -1.541016,0.75 -3.410157,1.0839844 -5.613282,0.9960938 z M 64.38965,-0.93726406 C 64.474611,-7.9743734 64.401369,-14.900155 64.166994,-21.714608 63.938478,-28.526131 63.537111,-35.28785 62.959963,-41.999764 l 7.558593,-1.992188 0.128907,4.429688 c 2.288085,-1.163086 4.420898,-1.658203 6.398437,-1.488281 1.983398,0.164062 3.694336,0.84082 5.132813,2.027343 1.435546,1.189454 2.548828,2.771485 3.339843,4.746094 0.788086,1.977539 1.163086,4.154297 1.125,6.527344 -0.416015,0.125976 -0.958008,0.304687 -1.628906,0.539062 -0.665039,0.228516 -1.341797,0.445313 -2.027344,0.65625 -0.688476,0.205079 -1.324218,0.392579 -1.910156,0.5625 -0.580078,0.164063 -1.016602,0.266602 -1.3125,0.304688 0,-2.334961 -0.28125,-4.104492 -0.84375,-5.308594 -0.5625,-1.209961 -1.294922,-1.992187 -2.191406,-2.34375 -0.890625,-0.351562 -1.88086,-0.339844 -2.964844,0.03516 -1.078125,0.375 -2.118164,0.978516 -3.117187,1.804688 -0.125977,2.211914 -0.125977,4.599609 0,7.160156 0.123046,2.563477 0.298828,5.15625 0.527343,7.78125 0.225586,2.625 0.495117,5.200195 0.808594,7.7226564 0.310547,2.5166016 0.635742,4.7929688 0.972656,6.8320313 z m 25.350586,-34.99218794 7.242187,-0.07031 c 0.04687,3.125976 0.108399,6.064453 0.1875,8.8125 0.08496,2.750976 0.19043,5.501953 0.316407,8.25 0.123047,2.750976 0.269531,5.575195 0.433593,8.472656 0.169922,2.8916017 0.401368,6.067383 0.691407,9.52734394 l -8.566407,0.43359375 z m -1.066406,-7.628906 c 0,-0.914062 0.237304,-1.669922 0.714843,-2.273437 0.483399,-0.609375 1.057618,-1.069336 1.722657,-1.382813 0.662109,-0.310547 1.388672,-0.46875 2.179687,-0.46875 0.796875,0 1.526367,0.158203 2.191406,0.46875 0.670899,0.313477 1.22461,0.773438 1.664063,1.382813 0.436523,0.603515 0.65625,1.359375 0.65625,2.273437 0,1.166016 -0.480469,2.05957 -1.441406,2.683594 -0.960938,0.626953 -2.015625,0.949219 -3.164063,0.972656 -1.142578,0.02344 -2.191406,-0.263672 -3.152344,-0.867187 -0.955078,-0.609375 -1.412109,-1.538086 -1.371093,-2.789063 z m 27.75586,40.1250002 c -2.54004,-0.046875 -4.70801,-0.600586 -6.50391,-1.6640625 -1.79004,-1.0605469 -3.25781,-2.4667969 -4.40625,-4.21875 -1.14258,-1.7490237 -1.96289,-3.7265627 -2.46093,-5.9296877 -0.50098,-2.208984 -0.71192,-4.470703 -0.63282,-6.785156 0.085,-2.311524 0.45996,-4.570313 1.125,-6.773438 0.6709,-2.208984 1.58789,-4.177734 2.75391,-5.90625 1.16309,-1.734375 2.56934,-3.131836 4.21875,-4.195312 1.64648,-1.060547 3.50976,-1.59375 5.58984,-1.59375 2.49903,0 4.6875,0.533203 6.5625,1.59375 1.875,1.063476 3.43653,2.469726 4.6875,4.21875 1.24805,1.751953 2.18555,3.744141 2.8125,5.976562 0.62403,2.226563 0.9375,4.497071 0.9375,6.808594 0,2.314453 -0.31347,4.582031 -0.9375,6.808594 -0.62695,2.226562 -1.54394,4.21582 -2.7539,5.9648437 -1.2041,1.7519531 -2.73633,3.149414 -4.59375,4.1953125 -1.85157,1.040039 -3.98438,1.5410156 -6.39844,1.5 z m 0.43359,-29.3085942 c -1.25097,0.04102 -2.33203,0.392579 -3.24609,1.054688 -0.91406,0.665039 -1.67578,1.541016 -2.28516,2.625 -0.60351,1.086914 -1.05175,2.305664 -1.34765,3.65625 -0.29004,1.353516 -0.4336,2.739258 -0.4336,4.160156 0,1.330078 0.13477,2.619141 0.41016,3.867188 0.27246,1.250976 0.66797,2.367187 1.18359,3.351562 0.52149,0.978516 1.17774,1.769531 1.96875,2.378906 0.79688,0.603516 1.69336,0.902344 2.69532,0.902344 1.24804,0 2.34375,-0.292969 3.28125,-0.878906 0.9375,-0.585938 1.71679,-1.347656 2.34375,-2.285156 0.62402,-0.9375 1.11328,-2.018555 1.46484,-3.246094 0.35156,-1.224609 0.56836,-2.487305 0.65625,-3.785156 0.085,-1.453125 0.003,-2.885743 -0.24609,-4.300782 -0.25196,-1.420898 -0.65625,-2.695312 -1.21875,-3.820312 -0.5625,-1.125 -1.28321,-2.030274 -2.15625,-2.71875 -0.87598,-0.685547 -1.89844,-1.007813 -3.07032,-0.960938 z m 27.37207,28.6757817 c -2.54882,-0.076172 -4.54101,-1.0019531 -5.97656,-2.7773438 -1.43848,-1.7724609 -2.50195,-4.0957029 -3.1875,-6.9726559 -0.68848,-2.874024 -1.0957,-6.143555 -1.21875,-9.808594 -0.12598,-3.662109 -0.12598,-7.432617 0,-11.308594 l 7.75781,-0.75 c -0.46289,4.625977 -0.6914,8.458008 -0.6914,11.496094 0,3.041016 0.16406,5.446289 0.49218,7.21875 0.33399,1.775391 0.83497,3.023437 1.5,3.75 0.6709,0.726562 1.46485,1.113281 2.37891,1.160156 0.75,0.04102 1.43555,-0.333984 2.0625,-1.125 0.62402,-0.796875 1.17481,-1.851562 1.65234,-3.164062 0.4834,-1.3125 0.89063,-2.800782 1.21875,-4.464844 0.33399,-1.664063 0.58594,-3.351563 0.75,-5.0625 0.16993,-1.710938 0.25782,-3.366211 0.25782,-4.96875 0,-1.599609 -0.0645,-3.005859 -0.1875,-4.21875 l 7.8164,0.128906 c -0.12597,2.750977 -0.26367,5.4375 -0.41015,8.0625 -0.14942,2.625 -0.39844,5.094727 -0.75,7.40625 -0.35157,2.314453 -0.84082,4.426758 -1.46485,6.339844 -0.62695,1.916016 -1.46191,3.5507812 -2.50781,4.9101562 -1.04004,1.3535156 -2.33203,2.4023437 -3.87891,3.1523437 -1.54101,0.75 -3.41015,1.0839844 -5.61328,0.9960938 z m 20.20313,-8.3085937 c 0.21094,0.336914 0.60351,0.735351 1.18359,1.195312 0.58594,0.454102 1.25391,0.890625 2.00391,1.3125004 0.75,0.4160157 1.54101,0.7675782 2.3789,1.0546875 0.83497,0.2900391 1.60547,0.4335938 2.3086,0.4335938 0.70898,0 1.31543,-0.1875 1.8164,-0.5625 0.49805,-0.375 0.79102,-1.0195313 0.87891,-1.9335937 0.12305,-1.083984 -0.10547,-2.103516 -0.69141,-3.058594 -0.58593,-0.960937 -1.34765,-1.910156 -2.28515,-2.847656 -0.9375,-0.9375 -1.96875,-1.892578 -3.09375,-2.871094 -1.125,-0.984375 -2.20899,-2.05664 -3.2461,-3.222656 -1.04003,-1.163086 -1.94531,-2.452149 -2.71875,-3.867188 -0.77343,-1.420898 -1.24218,-3.005859 -1.40625,-4.757812 -0.21093,-2.124024 0.0146,-3.9375 0.67969,-5.4375 0.6709,-1.5 1.58789,-2.663086 2.75391,-3.492188 1.17187,-0.834961 2.52539,-1.353515 4.0664,-1.558593 1.53809,-0.210938 3.0879,-0.08496 4.65235,0.375 1.56152,0.454101 3.04101,1.236328 4.4414,2.34375 1.39747,1.101562 2.55469,2.52832 3.46875,4.277343 l -4.2539,5.050782 c -1.00195,-1.538086 -1.95117,-2.671875 -2.84766,-3.398438 -0.89062,-0.726562 -1.70508,-1.171875 -2.4375,-1.335937 -0.72656,-0.169922 -1.35937,-0.108399 -1.89844,0.1875 -0.53906,0.290039 -0.93457,0.685547 -1.18359,1.183593 -0.375,0.665039 -0.3457,1.464844 0.0937,2.402344 0.43652,0.9375 1.00781,1.857422 1.71094,2.753906 0.70898,0.890625 1.42969,1.722657 2.15625,2.496094 0.73242,0.767578 1.24512,1.297852 1.53515,1.59375 0.78809,0.914063 1.66407,1.822266 2.625,2.71875 0.96094,0.890625 1.84571,1.836914 2.66016,2.835938 0.81152,1.001953 1.5,2.118164 2.0625,3.351562 0.5625,1.227539 0.84375,2.633789 0.84375,4.21875 0,1.3300783 -0.23144,2.5781252 -0.69141,3.7500002 -0.46289,1.1660156 -1.11035,2.1972656 -1.94531,3.09375 -0.8291,0.890625 -1.86035,1.6171875 -3.09375,2.1796875 -1.22754,0.5625 -2.58984,0.8671875 -4.08984,0.91406249 -2.25,0.0791016 -4.42676,-0.32812499 -6.52735,-1.21874999 -2.10351,-0.8964844 -3.88476,-2.241211 -5.34375,-4.03125 z m 68.68359,12.56249994 c 0.12305,-3.75000004 0.17578,-7.56152344 0.15235,-11.43749994 -0.0234,-3.873047 -0.0674,-7.705078 -0.12891,-11.496094 -0.0644,-3.796875 -0.14648,-7.482422 -0.24609,-11.0625 -0.10254,-3.585937 -0.17579,-6.978515 -0.22266,-10.183594 -0.87598,1.954102 -1.71973,4.03711 -2.53125,6.246094 -0.81445,2.211914 -1.59375,4.41211 -2.34375,6.597656 -0.75,2.179688 -1.42676,4.283204 -2.02734,6.304688 -0.60352,2.024414 -1.11329,3.805664 -1.53516,5.34375 l -5.12109,0.1875 -7.875,-27.5625 c 0.45996,7.672851 0.75293,15.310547 0.8789,22.910156 0.12305,7.602539 0.375,15.0468752 0.75,22.3359377 l -8.9414,0.74999999 c 0.24902,-4.70214849 0.46875,-8.81542969 0.65625,-12.33984369 0.1875,-3.521484 0.33105,-6.75293 0.43359,-9.691406 0.1084,-2.935547 0.18164,-5.712891 0.22266,-8.332032 0.0381,-2.625 0.0264,-5.384765 -0.0352,-8.285156 -0.0644,-2.897461 -0.1875,-6.064453 -0.375,-9.503906 -0.1875,-3.436524 -0.44531,-7.444336 -0.77344,-12.023438 l 8.6836,-1.382812 c 0.91406,3.172851 1.68164,5.841797 2.30859,8.003906 0.62402,2.165039 1.24805,4.21582 1.875,6.152344 0.62402,1.939453 1.33008,3.981445 2.12109,6.128906 0.79688,2.150391 1.81934,4.78711 3.07032,7.910156 1.03711,-2.334961 1.99511,-4.605468 2.87109,-6.808593 0.87305,-2.208985 1.7168,-4.388672 2.53125,-6.539063 0.81152,-2.147461 1.59375,-4.271484 2.34375,-6.375 0.75,-2.100586 1.52344,-4.21289 2.32031,-6.339844 l 7.61719,0.808594 c -0.16406,4.710938 -0.32227,9.462891 -0.46875,14.25 -0.14941,4.790039 -0.20508,9.65332 -0.16406,14.589844 0.0469,4.939453 0.24609,9.960937 0.59765,15.070312 0.35743,5.103516 0.95215,10.3417973 1.78125,15.71484419 z m 31.62305,-4.06640624 c -2.54004,1.7519531 -5.00977,2.6894531 -7.40625,2.8125 -2.39063,0.12597655 -4.50586,-0.3808594 -6.33984,-1.5234375 -1.83692,-1.1484375 -3.29883,-2.8535156 -4.38282,-5.1210938 -1.07812,-2.2734375 -1.59961,-4.9335934 -1.55859,-7.9804684 0.0469,-2.373047 0.41308,-4.423828 1.10156,-6.152344 0.68555,-1.725586 1.59375,-3.181641 2.71875,-4.371094 1.125,-1.186523 2.38184,-2.112305 3.77344,-2.777344 1.39746,-0.670898 2.81543,-1.11914 4.25391,-1.347656 1.43554,-0.234375 2.84179,-0.263672 4.21875,-0.09375 1.37402,0.164063 2.58105,0.498047 3.62109,0.996094 0,-1.248047 -0.12598,-2.425781 -0.375,-3.527344 -0.25195,-1.101562 -0.59473,-2.077148 -1.03125,-2.929687 -0.43945,-0.858399 -0.95801,-1.558594 -1.55859,-2.097657 -0.60352,-0.544921 -1.27735,-0.881836 -2.02735,-1.007812 -0.83789,-0.123047 -1.73437,-0.08203 -2.69531,0.128906 -0.95508,0.210938 -1.88086,0.536133 -2.77734,0.972656 -0.89942,0.439454 -1.72266,0.958008 -2.47266,1.558594 -0.75,0.603516 -1.37695,1.259766 -1.875,1.96875 l -4.125,-4.371094 c 0.79687,-1.125 1.78711,-2.124023 2.97656,-3 1.18652,-0.873046 2.44336,-1.623046 3.77344,-2.25 1.33594,-0.624023 2.66601,-1.081054 3.99609,-1.371093 1.33594,-0.295899 2.56641,-0.424805 3.69141,-0.386719 2.625,0.125976 4.70508,0.84375 6.24609,2.15625 1.54688,1.3125 2.70117,3.043945 3.46875,5.191406 0.77344,2.150391 1.25391,4.640625 1.44141,7.476563 0.1875,2.830078 0.24023,5.824218 0.16406,8.988281 -0.0469,1.962891 -0.082,3.911133 -0.10547,5.847656 -0.0176,1.939453 -0.006,3.814453 0.0352,5.625 0.0469,1.8134767 0.12012,3.5214846 0.22266,5.1210939 0.0996,1.6025391 0.25781,3.0527344 0.46875,4.34765629 l -7.44141,-0.0703125 z m -13.125,-10.3710937 c 0.085,1.289062 0.41016,2.519531 0.97266,3.691406 0.5625,1.1660158 1.3623,1.9980471 2.40234,2.4960939 1.0459,0.5009766 2.3584,0.5566407 3.9375,0.1640625 1.58496,-0.3984375 3.45996,-1.5146484 5.625,-3.3515624 -0.041,-1.998047 -0.0293,-4.037109 0.0352,-6.117188 0.0615,-2.085937 0.11132,-3.858398 0.15234,-5.320312 -1.79004,-0.75 -3.50977,-1.130859 -5.15625,-1.148438 -1.64063,-0.02344 -3.0791,0.322266 -4.3125,1.03125 -1.22754,0.703125 -2.18555,1.775391 -2.87109,3.210938 -0.68848,1.438476 -0.94922,3.219726 -0.78516,5.34375 z m 32.83594,26.378906 c -0.87598,-0.08789 -1.83692,-0.287109 -2.88282,-0.597656 -1.04004,-0.313477 -2.05957,-0.732422 -3.05859,-1.253906 -1.00195,-0.5156253 -1.96289,-1.1425784 -2.88281,-1.8750003 -0.91406,-0.7265625 -1.68457,-1.5908203 -2.3086,-2.5898438 l 3.87891,-6.37499996 c 0.53906,0.95800781 1.13965,1.77246096 1.80469,2.43749996 0.6709,0.6621094 1.35937,1.1953125 2.0625,1.59375 0.70898,0.3984375 1.4209,0.6914063 2.13281,0.8789063 0.70898,0.1875 1.37695,0.2988281 2.00391,0.3398437 1.57617,0.084961 2.88574,-0.2080078 3.92578,-0.8789062 1.0459,-0.6650391 1.88086,-1.5585938 2.50781,-2.6835938 0.62402,-1.1249999625 1.08105,-2.4052734 1.37109,-3.84375 0.2959,-1.4355468 0.50684,-2.90625 0.63282,-4.40625 0.12304,-1.5 0.17578,-2.9677739 0.15234,-4.4062499 -0.0234,-1.435547 -0.0117,-2.71875 0.0352,-3.84375 -2.25,1.415039 -4.52344,2.132812 -6.82032,2.15625 -2.29101,0.02344 -4.36523,-0.556641 -6.22265,-1.746094 -1.85156,-1.186523 -3.37207,-2.935547 -4.5586,-5.25 -1.18945,-2.311523 -1.78125,-5.091797 -1.78125,-8.34375 0,-3.249023 0.57422,-5.944336 1.72266,-8.085937 1.14844,-2.147461 2.63672,-3.732422 4.46484,-4.757813 1.83399,-1.022461 3.88477,-1.447265 6.15235,-1.277344 2.27344,0.164063 4.55859,0.955079 6.85547,2.367188 v -4.3125 l 7.6875,1.007812 c -0.25196,2.876954 -0.36914,6.357422 -0.35157,10.441407 0.0234,4.078125 0.0147,8.493164 -0.0234,13.242187 0,2.126953 0,4.438477 0,6.9375 0,2.501953 -0.11719,4.989258 -0.35157,7.4648439 -0.22851,2.4785157 -0.64453,4.84277347 -1.2539,7.0898438 -0.60352,2.25 -1.51758,4.2070312 -2.74219,5.8710937 -1.22754,1.6699219 -2.82129,2.9443356 -4.78125,3.8203126 -1.96289,0.873047 -4.41797,1.166016 -7.37109,0.878906 z m -3.12891,-40.6875 c 0,2.375977 0.41309,4.189453 1.24219,5.4375 0.83496,1.250977 1.87793,2.044922 3.1289,2.378906 1.24805,0.328125 2.58106,0.234375 3.9961,-0.28125 1.4209,-0.521484 2.71289,-1.388671 3.8789,-2.601562 l 0.12891,-9.433594 c -1.33594,-1.289062 -2.73633,-2.088867 -4.19531,-2.402344 -1.45313,-0.310546 -2.78614,-0.216796 -3.9961,0.28125 -1.2041,0.500977 -2.20312,1.324219 -3,2.472657 -0.79101,1.142578 -1.18359,2.52539 -1.18359,4.148437 z m 23.17383,43.933594 -0.75,-55.804688 8.25,-0.820312 -0.12891,4.3125 c 2.41992,-0.498047 4.7461,-0.568359 6.97266,-0.210938 2.22656,0.351563 4.20117,1.101563 5.92969,2.25 1.73437,1.142579 3.10839,2.680664 4.125,4.617188 1.02246,1.939453 1.53515,4.21875 1.53515,6.84375 -0.12597,2.085937 -0.5625,3.878906 -1.3125,5.378906 -0.75,1.5 -1.70801,2.762695 -2.87109,3.785156 -1.16602,1.016602 -2.43457,1.828125 -3.8086,2.4375 -1.37695,0.603516 -2.73046,1.040039 -4.0664,1.3125 -1.33594,0.266602 -2.57813,0.410157 -3.72656,0.433594 -1.14258,0.01758 -2.04493,-0.03809 -2.70704,-0.164062 0.0381,3.8378903 0.0879,7.8486325 0.15235,12.0351559 0.0615,4.1865235 0.53027,8.3437501 1.40625,12.4687501 z m 7.5,-33.128906 c 1.37402,0.210937 2.6748,0.254882 3.90234,0.128906 1.2334,-0.123047 2.29688,-0.404297 3.1875,-0.84375 0.89649,-0.436524 1.61719,-1.03125 2.15625,-1.78125 0.54492,-0.75 0.83789,-1.623047 0.87891,-2.625 0.0381,-1.584961 -0.19336,-2.876953 -0.69141,-3.878906 -0.50097,-0.999024 -1.20117,-1.749024 -2.09765,-2.25 -0.89063,-0.498047 -1.98633,-0.75586 -3.28125,-0.773438 -1.28907,-0.02344 -2.6836,0.152344 -4.1836,0.527344 z m 22.25683,-18.175782 7.24219,-0.07031 c 0.0469,3.125976 0.1084,6.064453 0.1875,8.8125 0.085,2.750976 0.19043,5.501953 0.31641,8.25 0.12304,2.750976 0.26953,5.575195 0.43359,8.472656 0.16992,2.8916017 0.40137,6.067383 0.69141,9.52734394 l -8.56641,0.43359375 z m -1.0664,-7.628906 c 0,-0.914062 0.2373,-1.669922 0.71484,-2.273437 0.4834,-0.609375 1.05762,-1.069336 1.72266,-1.382813 0.66211,-0.310547 1.38867,-0.46875 2.17969,-0.46875 0.79687,0 1.52636,0.158203 2.1914,0.46875 0.6709,0.313477 1.22461,0.773438 1.66406,1.382813 0.43653,0.603515 0.65625,1.359375 0.65625,2.273437 0,1.166016 -0.48046,2.05957 -1.4414,2.683594 -0.96094,0.626953 -2.01563,0.949219 -3.16406,0.972656 -1.14258,0.02344 -2.19141,-0.263672 -3.15235,-0.867187 -0.95508,-0.609375 -1.41211,-1.538086 -1.37109,-2.789063 z m 13.88379,24.808594 c -0.21094,-3.375 0.006,-6.257813 0.65625,-8.648438 0.64746,-2.396484 1.6289,-4.376953 2.9414,-5.941406 1.3125,-1.561523 2.92383,-2.724609 4.83985,-3.492187 1.91308,-0.773438 4.05761,-1.201172 6.43359,-1.289063 2.20899,-0.08496 4.06641,0.404297 5.56641,1.464844 1.5,1.063476 2.71875,2.431641 3.65625,4.101562 0.9375,1.664063 1.62304,3.498047 2.0625,5.496094 0.43652,2.000977 0.69726,3.875977 0.78515,5.625 -2.08593,0.125977 -3.98437,0.269531 -5.69531,0.433594 -1.70508,0.164062 -3.33691,0.310547 -4.89844,0.433594 -1.56445,0.125976 -3.10547,0.251953 -4.6289,0.375 -1.52344,0.125976 -3.16114,0.231445 -4.91016,0.316406 0.0469,0.837891 0.20215,1.860351 0.46875,3.070312 0.27246,1.204102 0.66797,2.390625 1.18359,3.5625 0.52149,1.166016 1.20118,2.153321 2.03907,2.964844 0.83496,0.8144533 1.83398,1.2187502 3,1.2187502 0.78808,0 1.6084,-0.1552735 2.46093,-0.46875 0.8584,-0.3105469 1.64063,-0.7675782 2.34375,-1.3710942 0.70899,-0.609375 1.34766,-1.350586 1.91016,-2.226562 0.5625,-0.873047 0.9668,-1.892578 1.21875,-3.058594 l 6.31641,4.125 c -0.33692,1.250977 -0.94336,2.4814455 -1.81641,3.6914064 -0.87598,1.2041016 -1.89551,2.2675782 -3.05859,3.1875 -1.16602,0.9140625 -2.42578,1.6523438 -3.78516,2.2148438 -1.35351,0.5625 -2.67187,0.84375 -3.96094,0.84375 -2.25,0 -4.2832,-0.4570313 -6.09375,-1.3710938 -1.81347,-0.9199218 -3.36914,-2.1386718 -4.66406,-3.65625 -1.28906,-1.5234375 -2.30859,-3.2841794 -3.05859,-5.2851564 -0.75,-1.998047 -1.18946,-4.104492 -1.3125,-6.316406 z m 19.3125,-7.441406 c 0.0381,-1.374024 -0.23438,-2.475586 -0.82032,-3.304688 -0.58007,-0.834961 -1.33007,-1.429687 -2.25,-1.78125 -0.91406,-0.357422 -1.92187,-0.483398 -3.02343,-0.375 -1.10157,0.102539 -2.11524,0.404297 -3.03516,0.902344 -0.91406,0.500976 -1.67578,1.201172 -2.28516,2.097656 -0.60351,0.890625 -0.8789,1.962891 -0.83203,3.210938 0.70313,0 1.54102,-0.03809 2.51953,-0.117188 0.98438,-0.08496 2.01563,-0.178711 3.09375,-0.28125 1.08399,-0.108398 2.20313,-0.193359 3.35157,-0.257812 1.14843,-0.06152 2.24121,-0.09375 3.28125,-0.09375 z m 0,0"
       style="fill:#1d1d1b;fill-opacity:1;fill-rule:nonzero;stroke:none"
       aria-label="Curious Magpie"
       transform="matrix(1.3333333,0,0,1.3333333,370.52213,427.42547)" />
  </g>
</svg>
