<svg xmlns="http://www.w3.org/2000/svg" viewBox="0 0 400 400" width="400" height="400">
  <defs>
    <linearGradient id="bg" x1="0%" y1="0%" x2="100%" y2="100%">
      <stop offset="0%" style="stop-color:#d4eeb8"/>
      <stop offset="100%" style="stop-color:#c4deb0"/>
    </linearGradient>
  </defs>
  <rect width="400" height="400" fill="url(#bg)" rx="12"/>
  <!-- Window frame -->
  <rect x="120" y="40" width="160" height="120" fill="#fdf8f0" stroke="#8B7355" stroke-width="3" rx="4"/>
  <line x1="200" y1="40" x2="200" y2="160" stroke="#8B7355" stroke-width="2"/>
  <line x1="120" y1="100" x2="280" y2="100" stroke="#8B7355" stroke-width="2"/>
  <!-- Sky through window -->
  <rect x="122" y="42" width="77" height="57" fill="#c0e0f0" rx="2"/>
  <rect x="201" y="42" width="77" height="57" fill="#c0e0f0" rx="2"/>
  <!-- Workbench -->
  <rect x="30" y="200" width="340" height="15" fill="#b89872" rx="2"/>
  <rect x="30" y="215" width="340" height="145" fill="#c8a882" rx="0"/>
  <!-- Potter's wheel -->
  <ellipse cx="200" cy="195" rx="35" ry="8" fill="#8B7355"/>
  <rect x="195" y="195" width="10" height="20" fill="#6a5040"/>
  <!-- Pot on wheel -->
  <path d="M180 195 Q175 170 185 160 L215 160 Q225 170 220 195" fill="#e8c870" stroke="#c8900a" stroke-width="1.5"/>
  <!-- Shelf with ceramics -->
  <rect x="30" y="100" width="70" height="6" fill="#8B7355" rx="1"/>
  <circle cx="50" cy="96" r="10" fill="#207FA6"/>
  <rect x="48" y="86" width="4" height="4" fill="#207FA6" rx="1"/>
  <ellipse cx="80" cy="98" rx="8" ry="6" fill="#6DB52D"/>
  <rect x="300" y="100" width="70" height="6" fill="#8B7355" rx="1"/>
  <circle cx="320" cy="96" r="8" fill="#FFB30F"/>
  <ellipse cx="350" cy="98" rx="10" ry="6" fill="#00679A"/>
  <!-- Brushes in jar -->
  <rect x="60" y="175" width="20" height="25" fill="#fdf8f0" stroke="#8B7355" stroke-width="1.5" rx="2"/>
  <line x1="65" y1="175" x2="63" y2="160" stroke="#c8900a" stroke-width="2" stroke-linecap="round"/>
  <line x1="70" y1="175" x2="70" y2="158" stroke="#207FA6" stroke-width="2" stroke-linecap="round"/>
  <line x1="75" y1="175" x2="77" y2="162" stroke="#6DB52D" stroke-width="2" stroke-linecap="round"/>
  <!-- Clay pieces -->
  <ellipse cx="300" cy="192" rx="15" ry="8" fill="#d4c8b0"/>
  <ellipse cx="320" cy="194" rx="10" ry="6" fill="#c8b898"/>
  <!-- Hands working clay (simplified) -->
  <ellipse cx="190" cy="172" rx="8" ry="5" fill="#e8c8a8" transform="rotate(-20 190 172)"/>
  <ellipse cx="212" cy="172" rx="8" ry="5" fill="#e8c8a8" transform="rotate(20 212 172)"/>
  <!-- Watermark -->
  <text x="200" y="310" font-family="Georgia, serif" font-size="16" fill="rgba(90,60,30,0.4)" text-anchor="middle" font-style="italic">Voorbeeldfoto</text>
  <text x="200" y="332" font-family="sans-serif" font-size="10" fill="rgba(90,60,30,0.3)" text-anchor="middle" letter-spacing="0.15em">WORDT VERVANGEN</text>
</svg>