<svg xmlns="http://www.w3.org/2000/svg" viewBox="0 0 400 400" width="400" height="400">
  <defs>
    <linearGradient id="bg" x1="0%" y1="0%" x2="100%" y2="100%">
      <stop offset="0%" style="stop-color:#c0e0f0"/>
      <stop offset="100%" style="stop-color:#b3d8ea"/>
    </linearGradient>
  </defs>
  <rect width="400" height="400" fill="url(#bg)"/>
  <!-- Soft surface / leaf -->
  <ellipse cx="200" cy="280" rx="150" ry="40" fill="#c4deb0" opacity="0.6"/>
  <!-- Big snail -->
  <ellipse cx="200" cy="260" rx="50" ry="12" fill="rgba(0,0,0,0.08)"/>
  <!-- Shell -->
  <ellipse cx="190" cy="225" rx="40" ry="35" fill="#FFB30F"/>
  <path d="M190 190 Q190 210 175 220 Q170 230 190 230" stroke="#c8900a" stroke-width="2" fill="none"/>
  <path d="M190 200 Q185 210 180 218" stroke="#c8900a" stroke-width="1.5" fill="none"/>
  <path d="M190 195 Q195 210 193 220" stroke="#c8900a" stroke-width="1" fill="none"/>
  <!-- Body -->
  <ellipse cx="235" cy="248" rx="45" ry="14" fill="#e8c870"/>
  <ellipse cx="260" cy="242" rx="12" ry="10" fill="#e8c870"/>
  <!-- Eyes -->
  <line x1="255" y1="232" x2="252" y2="220" stroke="#8B7355" stroke-width="2" stroke-linecap="round"/>
  <line x1="265" y1="232" x2="268" y2="220" stroke="#8B7355" stroke-width="2" stroke-linecap="round"/>
  <circle cx="252" cy="218" r="3" fill="#1a1008"/>
  <circle cx="268" cy="218" r="3" fill="#1a1008"/>
  <circle cx="251" cy="217" r="1" fill="#fff"/>
  <circle cx="267" cy="217" r="1" fill="#fff"/>
  <!-- Smile -->
  <path d="M256 245 Q260 248 264 245" stroke="#8B7355" stroke-width="1.5" fill="none" stroke-linecap="round"/>
  <!-- Small snail 1 -->
  <ellipse cx="100" cy="300" rx="20" ry="6" fill="rgba(0,0,0,0.06)"/>
  <ellipse cx="92" cy="288" rx="16" ry="14" fill="#207FA6"/>
  <path d="M92 274 Q92 284 83 290" stroke="#00679A" stroke-width="1.5" fill="none"/>
  <ellipse cx="110" cy="296" rx="18" ry="6" fill="#6DB8D8"/>
  <ellipse cx="120" cy="292" rx="5" ry="4" fill="#6DB8D8"/>
  <line x1="117" y1="288" x2="115" y2="280" stroke="#5a9aaa" stroke-width="1.5" stroke-linecap="round"/>
  <line x1="123" y1="288" x2="125" y2="280" stroke="#5a9aaa" stroke-width="1.5" stroke-linecap="round"/>
  <circle cx="115" cy="278" r="2" fill="#1a1008"/>
  <circle cx="125" cy="278" r="2" fill="#1a1008"/>
  <!-- Small snail 2 -->
  <ellipse cx="310" cy="305" rx="18" ry="5" fill="rgba(0,0,0,0.06)"/>
  <ellipse cx="303" cy="293" rx="14" ry="12" fill="#6DB52D"/>
  <path d="M303 281 Q303 290 295 295" stroke="#2C6C13" stroke-width="1.5" fill="none"/>
  <ellipse cx="320" cy="300" rx="15" ry="5" fill="#90c870"/>
  <ellipse cx="330" cy="297" rx="5" ry="4" fill="#90c870"/>
  <line x1="328" y1="293" x2="326" y2="286" stroke="#5a8a3a" stroke-width="1.5" stroke-linecap="round"/>
  <line x1="333" y1="293" x2="335" y2="286" stroke="#5a8a3a" stroke-width="1.5" stroke-linecap="round"/>
  <circle cx="326" cy="284" r="2" fill="#1a1008"/>
  <circle cx="335" cy="284" r="2" fill="#1a1008"/>
  <!-- Watermark -->
  <text x="200" y="390" font-family="sans-serif" font-size="9" fill="rgba(90,60,30,0.35)" text-anchor="middle" letter-spacing="0.15em">VOORBEELDFOTO</text>
</svg>