<svg xmlns="http://www.w3.org/2000/svg" viewBox="0 0 400 400" width="400" height="400">
  <defs>
    <linearGradient id="bg" x1="0%" y1="0%" x2="100%" y2="100%">
      <stop offset="0%" style="stop-color:#c4deb0"/>
      <stop offset="100%" style="stop-color:#d4eeb8"/>
    </linearGradient>
  </defs>
  <rect width="400" height="400" fill="url(#bg)"/>
  <!-- Table surface -->
  <rect x="0" y="280" width="400" height="120" fill="#e8dcc8" rx="0"/>
  <rect x="0" y="276" width="400" height="8" fill="#d4c8b0"/>
  <!-- Card 1 (back, slightly rotated) -->
  <rect x="130" y="120" width="120" height="160" fill="#fdf8f0" stroke="#d4c8b0" stroke-width="2" rx="5" transform="rotate(-8 190 200)"/>
  <!-- Card 2 (front) -->
  <rect x="145" y="115" width="120" height="160" fill="#fdf8f0" stroke="#d4c8b0" stroke-width="2" rx="5" transform="rotate(3 205 195)"/>
  <!-- Ceramic flower on card 2 -->
  <!-- Petals -->
  <circle cx="205" cy="170" r="8" fill="#00679A" opacity="0.7" transform="rotate(3 205 195)"/>
  <circle cx="220" cy="175" r="8" fill="#207FA6" opacity="0.7" transform="rotate(3 205 195)"/>
  <circle cx="215" cy="190" r="8" fill="#00679A" opacity="0.7" transform="rotate(3 205 195)"/>
  <circle cx="198" cy="188" r="8" fill="#207FA6" opacity="0.7" transform="rotate(3 205 195)"/>
  <circle cx="195" cy="175" r="8" fill="#00679A" opacity="0.7" transform="rotate(3 205 195)"/>
  <!-- Center -->
  <circle cx="208" cy="180" r="5" fill="#FFB30F" transform="rotate(3 205 195)"/>
  <!-- Stem -->
  <line x1="208" y1="185" x2="205" y2="218" stroke="#6DB52D" stroke-width="2.5" stroke-linecap="round" transform="rotate(3 205 195)"/>
  <path d="M205 205 Q195 198 198 210" fill="#6DB52D" opacity="0.7" transform="rotate(3 205 195)"/>
  <!-- Text on card -->
  <text x="208" y="240" font-family="Georgia, serif" font-size="10" fill="#8B7355" text-anchor="middle" transform="rotate(3 205 195)" font-style="italic">voor jou ♥</text>
  <!-- 3D ceramic flower effect - raised bump -->
  <circle cx="208" cy="178" r="12" fill="none" stroke="rgba(0,0,0,0.1)" stroke-width="1" transform="rotate(3 205 195)"/>
  <!-- Second card arrangement (smaller, to the side) -->
  <rect x="280" y="175" width="80" height="110" fill="#fdf8f0" stroke="#d4c8b0" stroke-width="1.5" rx="4" transform="rotate(8 320 230)"/>
  <!-- Small flower on second card -->
  <circle cx="320" cy="215" r="5" fill="#FFB30F" opacity="0.7" transform="rotate(8 320 230)"/>
  <circle cx="314" cy="210" r="5" fill="#FFB30F" opacity="0.7" transform="rotate(8 320 230)"/>
  <circle cx="326" cy="210" r="5" fill="#FFB30F" opacity="0.7" transform="rotate(8 320 230)"/>
  <circle cx="316" cy="220" r="5" fill="#FFB30F" opacity="0.7" transform="rotate(8 320 230)"/>
  <circle cx="324" cy="220" r="5" fill="#FFB30F" opacity="0.7" transform="rotate(8 320 230)"/>
  <circle cx="320" cy="215" r="3" fill="#e84040" opacity="0.6" transform="rotate(8 320 230)"/>
  <!-- Ribbon/string -->
  <path d="M150 275 Q170 260 190 270 Q210 280 230 265" stroke="#FFB30F" stroke-width="2" fill="none" stroke-linecap="round"/>
  <!-- Watermark -->
  <text x="200" y="390" font-family="sans-serif" font-size="9" fill="rgba(90,60,30,0.35)" text-anchor="middle" letter-spacing="0.15em">VOORBEELDFOTO</text>
</svg>