<svg xmlns="http://www.w3.org/2000/svg" viewBox="0 0 400 400" width="400" height="400">
  <defs>
    <linearGradient id="bg" x1="0%" y1="0%" x2="100%" y2="100%">
      <stop offset="0%" style="stop-color:#d4eeb8"/>
      <stop offset="100%" style="stop-color:#c4deb0"/>
    </linearGradient>
  </defs>
  <rect width="400" height="400" fill="url(#bg)"/>
  <!-- Garden ground -->
  <ellipse cx="200" cy="360" rx="180" ry="40" fill="#b8d898" opacity="0.6"/>
  <!-- Grass tufts -->
  <path d="M100 350 Q105 330 110 350" stroke="#6DB52D" stroke-width="2" fill="none"/>
  <path d="M105 352 Q112 325 118 352" stroke="#2C6C13" stroke-width="2" fill="none"/>
  <path d="M290 348 Q295 328 300 348" stroke="#6DB52D" stroke-width="2" fill="none"/>
  <path d="M295 350 Q302 323 308 350" stroke="#2C6C13" stroke-width="2" fill="none"/>
  
  <!-- Flower 1 (left, large) -->
  <rect x="118" y="200" width="4" height="150" fill="#8B7355" rx="2"/>
  <circle cx="120" cy="195" r="20" fill="#FFB30F"/>
  <circle cx="120" cy="195" r="16" fill="#FFC030"/>
  <!-- Petals -->
  <ellipse cx="105" cy="195" rx="8" ry="12" fill="#FFB30F" opacity="0.9"/>
  <ellipse cx="135" cy="195" rx="8" ry="12" fill="#FFB30F" opacity="0.9"/>
  <ellipse cx="120" cy="180" rx="12" ry="8" fill="#FFB30F" opacity="0.9"/>
  <ellipse cx="120" cy="210" rx="12" ry="8" fill="#FFB30F" opacity="0.9"/>
  <!-- Center -->
  <circle cx="120" cy="195" r="6" fill="#FFD700"/>
  
  <!-- Flower 2 (center, medium) -->
  <rect x="196" y="220" width="4" height="130" fill="#8B7355" rx="2"/>
  <circle cx="200" cy="215" r="18" fill="#00679A"/>
  <circle cx="200" cy="215" r="14" fill="#207FA6"/>
  <!-- Petals -->
  <ellipse cx="187" cy="215" rx="7" ry="11" fill="#00679A" opacity="0.9"/>
  <ellipse cx="213" cy="215" rx="7" ry="11" fill="#00679A" opacity="0.9"/>
  <ellipse cx="200" cy="202" rx="11" ry="7" fill="#00679A" opacity="0.9"/>
  <ellipse cx="200" cy="228" rx="11" ry="7" fill="#00679A" opacity="0.9"/>
  <!-- Center -->
  <circle cx="200" cy="215" r="5" fill="#FFD700"/>
  
  <!-- Flower 3 (right, small) -->
  <rect x="278" y="240" width="3" height="110" fill="#8B7355" rx="1.5"/>
  <circle cx="280" cy="235" r="14" fill="#6DB52D"/>
  <circle cx="280" cy="235" r="11" fill="#7DC53D"/>
  <!-- Petals -->
  <ellipse cx="270" cy="235" rx="6" ry="9" fill="#6DB52D" opacity="0.9"/>
  <ellipse cx="290" cy="235" rx="6" ry="9" fill="#6DB52D" opacity="0.9"/>
  <ellipse cx="280" cy="223" rx="9" ry="6" fill="#6DB52D" opacity="0.9"/>
  <ellipse cx="280" cy="247" rx="9" ry="6" fill="#6DB52D" opacity="0.9"/>
  <!-- Center -->
  <circle cx="280" cy="235" r="4" fill="#FFD700"/>
  
  <!-- Small decorative flowers at base -->
  <circle cx="150" cy="355" r="3" fill="#FFB30F" opacity="0.5"/>
  <circle cx="250" cy="358" r="3" fill="#00679A" opacity="0.5"/>
  <circle cx="320" cy="352" r="2.5" fill="#6DB52D" opacity="0.5"/>
  
  <!-- Watermark -->
  <text x="200" y="390" font-family="sans-serif" font-size="9" fill="rgba(90,60,30,0.35)" text-anchor="middle" letter-spacing="0.15em">VOORBEELDFOTO</text>
</svg>